<?xml version="1.0" standalone="no"?>
<!DOCTYPE svg PUBLIC "-//W3C//DTD SVG 20010904//EN"
 "http://www.w3.org/TR/2001/REC-SVG-20010904/DTD/svg10.dtd">
<svg version="1.0" xmlns="http://www.w3.org/2000/svg"
 width="300.000000pt" height="300.000000pt" viewBox="0 0 300.000000 300.000000"
 preserveAspectRatio="xMidYMid meet">

<g transform="translate(0.000000,300.000000) scale(0.100000,-0.100000)"
fill="#000000" stroke="none">
<path d="M1318 2530 c-121 -22 -266 -85 -358 -157 -25 -19 -73 -64 -106 -100
l-61 -66 -224 40 c-123 22 -227 37 -231 34 -4 -3 -8 -26 -10 -51 l-3 -44 505
-89 c278 -49 507 -91 509 -92 1 -2 0 -51 -4 -109 l-7 -106 -42 0 c-53 -1 -624
-85 -633 -94 -4 -3 -1 -46 5 -94 12 -92 44 -197 82 -272 87 -173 260 -327 439
-391 l63 -23 -6 -100 c-11 -164 -15 -182 -42 -195 -53 -24 -223 -135 -218
-143 10 -15 154 11 319 58 66 19 124 34 130 34 5 0 -23 -19 -63 -41 -41 -22
-72 -42 -70 -44 1 -2 44 6 93 17 142 31 336 30 495 -4 157 -33 240 -43 240
-29 0 6 -7 11 -15 11 -36 0 -95 41 -113 78 -16 34 -21 38 -67 43 -57 7 -101
27 -129 58 -11 12 -25 21 -32 21 -23 0 -31 31 -38 141 l-6 105 57 24 c234 94
420 315 479 566 8 38 17 70 18 71 1 2 87 -13 192 -31 104 -19 192 -31 195 -28
4 4 10 26 14 49 5 35 4 42 -12 47 -29 8 -992 176 -1014 176 -14 0 -19 7 -19
28 0 15 -3 64 -7 110 -6 81 -6 82 17 82 38 0 500 122 500 132 0 18 -90 127
-155 186 -77 70 -206 141 -315 172 -84 24 -272 35 -352 20z m182 -630 l0 -110
-60 0 -59 0 5 88 c8 136 6 132 64 132 l50 0 0 -110z m5 -255 c5 -28 1 -79 -11
-140 -18 -95 -18 -96 5 -165 34 -105 36 -153 13 -291 -12 -68 -24 -172 -28
-230 l-6 -106 -99 -24 -99 -25 0 36 c0 24 66 952 70 988 0 1 33 2 74 2 l75 0
6 -45z"/>
</g>
</svg>
